<?xml version="1.0" encoding="UTF-8" standalone="no"?><!DOCTYPE svg PUBLIC "-//W3C//DTD SVG 1.1//EN" "http://www.w3.org/Graphics/SVG/1.1/DTD/svg11.dtd"><svg width="100%" height="100%" viewBox="0 0 260 260" version="1.1" xmlns="http://www.w3.org/2000/svg" xmlns:xlink="http://www.w3.org/1999/xlink" xml:space="preserve" xmlns:serif="http://www.serif.com/" style="fill-rule:evenodd;clip-rule:evenodd;stroke-linecap:round;stroke-linejoin:round;stroke-miterlimit:1.5;"><path d="M242.741,73.629c0,-31.112 -25.258,-56.37 -56.37,-56.37l-112.742,-0c-31.112,-0 -56.37,25.258 -56.37,56.37l-0,112.742c-0,31.112 25.258,56.37 56.37,56.37l112.742,0c31.112,0 56.37,-25.258 56.37,-56.37l0,-112.742Z" style="fill:#fff;stroke:#000;stroke-width:22.97px;"/><path d="M101.588,107.287c0,-9.39 -7.623,-17.014 -17.014,-17.014c-9.39,0 -17.014,7.624 -17.014,17.014l0,45.426c0,9.39 7.624,17.014 17.014,17.014c9.391,-0 17.014,-7.624 17.014,-17.014l0,-45.426Z" style="stroke:#000;stroke-width:5.16px;"/><path d="M193.1,107.287c0,-9.39 -7.623,-17.014 -17.014,-17.014c-9.39,0 -17.014,7.624 -17.014,17.014l0,45.426c0,9.39 7.624,17.014 17.014,17.014c9.391,-0 17.014,-7.624 17.014,-17.014l0,-45.426Z" style="stroke:#000;stroke-width:5.16px;"/></svg>