<?xml version="1.0" encoding="UTF-8" standalone="no"?><!DOCTYPE svg PUBLIC "-//W3C//DTD SVG 1.1//EN" "http://www.w3.org/Graphics/SVG/1.1/DTD/svg11.dtd"><svg width="100%" height="100%" viewBox="0 0 1408 1301" version="1.1" xmlns="http://www.w3.org/2000/svg" xmlns:xlink="http://www.w3.org/1999/xlink" xml:space="preserve" xmlns:serif="http://www.serif.com/" style="fill-rule:evenodd;clip-rule:evenodd;stroke-linecap:round;stroke-linejoin:round;stroke-miterlimit:1.5;"><g><g><path d="M1154.61,758.901l-424.939,211.075l-0,842.246l424.939,-211.075l-0,-842.246Z" style="fill:#484848;"/><path d="M729.67,968.105l-421.502,-174.673l0,844.117l421.502,174.673l-0,-844.117Z" style="fill:#5a5a5a;"/><path d="M729.67,585.448l-421.502,208.202l424.939,173.775l421.502,-208.203l-424.939,-173.774Z" style="fill:#656565;"/><g><path d="M549.032,1245.5c0,-10.268 6.712,-15.302 14.979,-11.235l29.957,14.74c8.267,4.068 14.978,15.707 14.978,25.975l0,142.533c0,10.268 -6.711,15.302 -14.978,11.235l-29.957,-14.74c-8.267,-4.068 -14.979,-15.707 -14.979,-25.975l0,-142.533Z" style="fill:#eb793f;"/><path d="M418.22,1200.14c-0,-10.268 6.711,-15.302 14.978,-11.234l29.957,14.74c8.267,4.067 14.979,15.706 14.979,25.974l-0,142.533c-0,10.268 -6.712,15.302 -14.979,11.235l-29.957,-14.74c-8.267,-4.068 -14.978,-15.707 -14.978,-25.975l-0,-142.533Z" style="fill:#eb793f;"/></g></g><g><path d="M100.495,297.033c-28.451,-40.29 -25.704,-102.413 10.408,-152.186c35.442,-48.85 92.165,-70.838 138.806,-57.888c3.143,-8.161 7.45,-16.164 12.937,-23.726c28.607,-39.429 78.541,-52.061 111.44,-28.192c26.819,19.458 34.09,57.205 20.363,91.856l86.451,107.48l-6.562,8.928l11.167,8.102l-164.793,227.131l-12.559,-9.112l-6.704,9.122l-126.726,-49.762c-28.478,22.61 -65.658,26.851 -91.954,7.772c-32.899,-23.869 -36.383,-75.259 -7.776,-114.687c7.318,-10.086 16.031,-18.419 25.502,-24.838Z" style="fill:#fff;stroke:#676261;stroke-width:3.88px;"/><path d="M297.646,476.224c24.773,18.381 85.386,-21.278 135.271,-88.508c49.885,-67.23 70.272,-136.737 45.499,-155.118c-16.403,35.048 -44.096,82.878 -79.164,130.139c-35.067,47.261 -72.817,87.629 -101.606,113.487Z" style="fill:#a3a3a1;stroke:#676261;stroke-width:3.88px;"/></g><ellipse cx="731.388" cy="776.436" rx="40.466" ry="13.147" style="fill:#ebebeb;stroke:#676261;stroke-width:3.88px;"/></g><g><path d="M967.428,250.323c3.149,-14.206 -5.827,-28.296 -20.033,-31.446l-304.102,-67.418c-14.206,-3.149 -28.296,5.828 -31.446,20.034l-11.412,51.478c-3.15,14.206 5.827,28.297 20.033,31.446l304.101,67.418c14.206,3.149 28.297,-5.827 31.446,-20.033l11.413,-51.479Z" style="fill:#ebebeb;stroke:#676261;stroke-width:3.88px;"/><path d="M488.957,247.674c6.749,-24.687 21.814,-43.403 49.959,-52.728c32.781,-2.299 32.269,40.395 2.027,42.28c-31.81,-2.367 -22.199,-35.662 -2.027,-42.28c10.465,-13.517 50.578,-28.837 66.2,-0" style="fill:none;stroke:#676261;stroke-width:3.88px;"/></g><g><path d="M1326.93,399.275c-6.097,-13.211 -21.774,-18.987 -34.986,-12.889l-294.832,136.082c-13.212,6.098 -18.987,21.774 -12.889,34.986l22.097,47.875c6.098,13.212 21.774,18.987 34.986,12.889l294.832,-136.082c13.212,-6.097 18.987,-21.774 12.889,-34.986l-22.097,-47.875Z" style="fill:#ebebeb;stroke:#676261;stroke-width:3.88px;"/><path d="M932.579,692.503c-9.581,-23.731 -8.929,-47.749 7.819,-72.216c24.692,-21.683 50.142,12.601 27.219,32.416c-26.744,17.383 -39.262,-14.932 -27.219,-32.416c0.141,-17.094 22.781,-53.578 52.677,-40.094" style="fill:none;stroke:#676261;stroke-width:3.88px;"/></g><g><path d="M714.637,198.544l-7.843,40.499c-0.171,0.881 -0.624,1.57 -1.36,2.067c-0.684,0.462 -1.466,0.608 -2.347,0.437l-1.85,-0.358c-0.528,-0.103 -0.998,-0.331 -1.41,-0.684c-0.411,-0.354 -0.706,-0.777 -0.885,-1.269l-8.68,-25.26c-0.26,-0.782 -0.699,-1.347 -1.317,-1.695c-0.618,-0.348 -1.252,-0.494 -1.903,-0.437c-0.659,0.101 -1.256,0.351 -1.79,0.75c-0.526,0.355 -0.87,0.951 -1.032,1.788l-3.659,18.895c-0.171,0.881 -0.624,1.57 -1.36,2.067c-0.684,0.462 -1.466,0.608 -2.347,0.437c-0.925,-0.179 -1.618,-0.61 -2.08,-1.294c-0.462,-0.683 -0.603,-1.488 -0.424,-2.413l7.882,-40.697c0.171,-0.881 0.598,-1.552 1.281,-2.014c0.737,-0.497 1.545,-0.661 2.426,-0.49l1.387,0.269c1.145,0.222 1.906,0.894 2.283,2.018l8.692,25.195c0.26,0.781 0.677,1.342 1.251,1.682c0.662,0.356 1.292,0.524 1.89,0.503c0.695,-0.048 1.314,-0.294 1.857,-0.737c0.534,-0.399 0.882,-1.017 1.044,-1.854l3.621,-18.697c0.171,-0.881 0.651,-1.588 1.439,-2.121c0.789,-0.533 1.646,-0.709 2.571,-0.53c0.881,0.17 1.587,0.65 2.12,1.439c0.533,0.788 0.714,1.623 0.543,2.504Z" style="fill-rule:nonzero;"/><path d="M733.349,208.817l-1.05,5.417c-0.17,0.881 0.002,1.703 0.517,2.465c0.515,0.762 1.235,1.233 2.16,1.412l10.108,1.958c0.881,0.171 1.579,0.637 2.094,1.399c0.515,0.763 0.687,1.584 0.516,2.465c-0.17,0.881 -0.637,1.579 -1.399,2.094c-0.762,0.515 -1.584,0.687 -2.465,0.517l-10.108,-1.958c-0.925,-0.179 -1.769,-0.011 -2.531,0.504c-0.763,0.515 -1.229,1.213 -1.4,2.093l-2.891,14.932c-0.171,0.881 -0.637,1.579 -1.4,2.094c-0.762,0.515 -1.584,0.687 -2.465,0.516c-0.881,-0.171 -1.579,-0.637 -2.093,-1.399c-0.515,-0.763 -0.688,-1.584 -0.517,-2.465l7.703,-39.773c0.171,-0.881 0.637,-1.579 1.399,-2.094c0.763,-0.515 1.584,-0.687 2.465,-0.516l16.649,3.224c0.881,0.171 1.579,0.637 2.094,1.4c0.515,0.762 0.687,1.584 0.517,2.465c-0.171,0.88 -0.638,1.578 -1.4,2.093c-0.762,0.515 -1.584,0.687 -2.465,0.517l-10.108,-1.958c-0.925,-0.179 -1.769,-0.011 -2.531,0.504c-0.762,0.515 -1.229,1.213 -1.399,2.094Z" style="fill-rule:nonzero;"/><path d="M787.222,247.766c0.478,0.366 0.823,0.822 1.038,1.366c0.214,0.544 0.282,1.083 0.201,1.615c-0.08,0.533 -0.279,1.032 -0.598,1.495c-0.318,0.464 -0.754,0.825 -1.306,1.084c-0.702,0.321 -1.407,0.596 -2.114,0.825c-0.707,0.228 -1.446,0.45 -2.219,0.666c-3.251,0.742 -6.573,0.784 -9.964,0.127c-3.304,-0.64 -6.267,-1.853 -8.891,-3.641c-2.668,-1.796 -4.846,-4 -6.534,-6.612c-1.793,-2.541 -3.024,-5.384 -3.695,-8.53c-0.678,-3.102 -0.698,-6.304 -0.058,-9.608c0.64,-3.303 1.853,-6.267 3.641,-8.891c1.788,-2.624 3.996,-4.824 6.625,-6.6c2.576,-1.74 5.415,-2.949 8.517,-3.628c3.102,-0.679 6.304,-0.698 9.608,-0.059c3.788,0.734 7.056,2.144 9.805,4.23c1.52,1.117 2.874,2.384 4.062,3.803c0.372,0.437 0.608,0.929 0.708,1.473c0.1,0.545 0.079,1.067 -0.063,1.565c-0.142,0.498 -0.401,0.95 -0.777,1.357c-0.376,0.407 -0.853,0.692 -1.433,0.854c-0.632,0.197 -1.251,0.203 -1.854,0.018c-0.604,-0.186 -1.11,-0.524 -1.518,-1.014c-1.081,-1.26 -2.271,-2.313 -3.569,-3.159c-1.935,-1.334 -4.136,-2.24 -6.603,-2.718c-2.378,-0.461 -4.714,-0.433 -7.007,0.082c-2.232,0.436 -4.321,1.311 -6.266,2.625c-1.84,1.243 -3.428,2.832 -4.762,4.767c-1.335,1.935 -2.236,4.114 -2.706,6.536c-0.46,2.379 -0.433,4.715 0.083,7.008c0.524,2.249 1.399,4.338 2.625,6.266c1.331,1.858 2.942,3.449 4.833,4.775c1.935,1.334 4.092,2.232 6.47,2.692c2.114,0.41 4.235,0.432 6.362,0.067c0.72,-0.18 1.419,-0.365 2.095,-0.554c0.676,-0.188 1.339,-0.426 1.989,-0.711c1.193,-0.5 2.285,-0.357 3.275,0.429Z" style="fill-rule:nonzero;"/><path d="M818.09,216.528c-1.752,9.045 -4.915,16.176 -10.796,21.412l4.942,5.275c4.447,-3.868 7.674,-8.864 10.052,-14.778l8.794,1.703l-2.277,11.76l-7.678,-4.64l-3.747,6.266l9.29,5.5c-2.997,6.617 -8.224,9.512 -15.814,10.51l1.716,7.05c10.133,-0.985 20.199,-6.987 23.283,-22.909l3.734,-19.284l-15.129,-2.93c0.296,-1.176 0.593,-2.353 0.823,-3.542l-7.193,-1.393Z" style="fill-rule:nonzero;"/><path d="M889.588,231.326l1.636,-8.448l-4.088,-0.792l-1.636,8.448l4.088,0.792Zm1.924,0.373l4.088,0.791l1.636,-8.448l-4.088,-0.792l-1.636,8.449Zm-22.02,-5.224c-1.728,8.921 -4.891,16.052 -10.772,21.287l4.942,5.276c4.435,-3.802 7.661,-8.798 9.96,-14.659l8.861,1.716l-2.355,12.156c-2.213,11.43 -8.037,15.991 -17.871,17.24l1.715,7.05c10.133,-0.985 20.2,-6.987 23.283,-22.909l3.735,-19.284l-15.129,-2.93c0.297,-1.18 0.528,-2.373 0.758,-3.562l-7.127,-1.381Z" style="fill-rule:nonzero;"/></g><g><path d="M1041.65,534.198l17.668,37.277c0.385,0.811 0.427,1.635 0.129,2.471c-0.277,0.777 -0.821,1.358 -1.632,1.742l-1.703,0.807c-0.486,0.23 -1,0.325 -1.541,0.283c-0.541,-0.041 -1.029,-0.207 -1.465,-0.497l-21.955,-15.212c-0.672,-0.475 -1.361,-0.671 -2.065,-0.585c-0.704,0.086 -1.301,0.344 -1.792,0.775c-0.472,0.472 -0.804,1.027 -0.998,1.665c-0.214,0.597 -0.138,1.281 0.227,2.051l8.244,17.392c0.384,0.811 0.427,1.635 0.128,2.471c-0.277,0.777 -0.821,1.358 -1.632,1.742c-0.851,0.404 -1.665,0.467 -2.442,0.189c-0.777,-0.277 -1.367,-0.841 -1.77,-1.692l-17.755,-37.46c-0.385,-0.81 -0.438,-1.604 -0.161,-2.381c0.299,-0.837 0.853,-1.447 1.664,-1.831l1.277,-0.606c1.054,-0.499 2.066,-0.408 3.035,0.275l21.926,15.151c0.673,0.476 1.341,0.68 2.004,0.614c0.745,-0.105 1.352,-0.343 1.821,-0.714c0.532,-0.451 0.885,-1.015 1.06,-1.694c0.194,-0.638 0.108,-1.342 -0.257,-2.112l-8.157,-17.21c-0.384,-0.81 -0.416,-1.664 -0.097,-2.56c0.32,-0.897 0.906,-1.547 1.757,-1.95c0.811,-0.384 1.665,-0.417 2.561,-0.097c0.896,0.32 1.537,0.885 1.921,1.696Z" style="fill-rule:nonzero;"/><path d="M1062.81,531.392l2.364,4.987c0.384,0.811 1.01,1.371 1.876,1.68c0.867,0.309 1.725,0.262 2.577,-0.142l9.304,-4.409c0.811,-0.385 1.649,-0.422 2.516,-0.113c0.866,0.309 1.491,0.869 1.876,1.68c0.384,0.811 0.422,1.649 0.112,2.516c-0.309,0.866 -0.869,1.492 -1.68,1.876l-9.304,4.41c-0.851,0.403 -1.431,1.038 -1.74,1.905c-0.31,0.866 -0.272,1.705 0.112,2.516l6.514,13.743c0.384,0.811 0.422,1.649 0.113,2.516c-0.309,0.866 -0.869,1.492 -1.68,1.876c-0.811,0.384 -1.65,0.422 -2.516,0.113c-0.867,-0.31 -1.492,-0.87 -1.876,-1.681l-17.352,-36.607c-0.384,-0.811 -0.421,-1.65 -0.112,-2.516c0.309,-0.867 0.869,-1.492 1.68,-1.876l15.324,-7.264c0.811,-0.384 1.649,-0.422 2.516,-0.112c0.866,0.309 1.492,0.869 1.876,1.68c0.384,0.81 0.422,1.649 0.113,2.516c-0.31,0.866 -0.87,1.491 -1.68,1.876l-9.304,4.41c-0.852,0.403 -1.432,1.038 -1.741,1.905c-0.309,0.866 -0.272,1.705 0.112,2.515Z" style="fill-rule:nonzero;"/><path d="M1129.29,530.864c0.602,0.013 1.15,0.175 1.645,0.486c0.495,0.312 0.868,0.706 1.119,1.183c0.251,0.477 0.386,0.996 0.404,1.559c0.018,0.562 -0.119,1.111 -0.411,1.647c-0.375,0.674 -0.78,1.313 -1.214,1.916c-0.434,0.603 -0.899,1.22 -1.394,1.852c-2.18,2.523 -4.831,4.524 -7.953,6.003c-3.04,1.441 -6.147,2.219 -9.32,2.333c-3.214,0.133 -6.274,-0.353 -9.181,-1.458c-2.949,-0.985 -5.625,-2.546 -8.029,-4.684c-2.384,-2.097 -4.296,-4.666 -5.738,-7.706c-1.441,-3.041 -2.218,-6.148 -2.332,-9.321c-0.114,-3.173 0.362,-6.253 1.429,-9.241c1.044,-2.928 2.615,-5.584 4.713,-7.968c2.097,-2.384 4.665,-4.297 7.706,-5.738c3.486,-1.653 6.955,-2.453 10.406,-2.4c1.886,-0.001 3.728,0.219 5.524,0.658c0.56,0.132 1.041,0.388 1.444,0.768c0.404,0.38 0.696,0.812 0.876,1.298c0.18,0.485 0.24,1.003 0.178,1.554c-0.062,0.55 -0.278,1.062 -0.649,1.536c-0.393,0.534 -0.887,0.905 -1.484,1.113c-0.596,0.208 -1.204,0.235 -1.823,0.082c-1.617,-0.375 -3.2,-0.519 -4.747,-0.431c-2.349,0.071 -4.659,0.644 -6.929,1.72c-2.189,1.038 -4.055,2.444 -5.598,4.217c-1.54,1.674 -2.705,3.616 -3.494,5.827c-0.746,2.091 -1.084,4.312 -1.013,6.661c0.071,2.35 0.635,4.639 1.692,6.869c1.038,2.189 2.443,4.055 4.217,5.597c1.754,1.502 3.697,2.667 5.826,3.494c2.173,0.708 4.414,1.036 6.723,0.985c2.349,-0.071 4.618,-0.626 6.808,-1.663c1.945,-0.923 3.667,-2.161 5.165,-3.715c0.474,-0.572 0.927,-1.134 1.36,-1.687c0.433,-0.553 0.827,-1.136 1.181,-1.751c0.665,-1.11 1.63,-1.641 2.893,-1.595Z" style="fill-rule:nonzero;"/><path d="M1133.02,492.685l9.855,20.793l6.621,-3.138l-9.856,-20.793l-6.62,3.138Zm28.631,37.954c9.517,-13.073 6.012,-23.921 -5.774,-48.788l-6.56,3.109c10.374,21.888 14.284,30.608 6.712,41.047l5.622,4.632Z" style="fill-rule:nonzero;"/><path d="M1190.12,493.758l25.289,-11.986l-3.138,-6.621l-25.289,11.987l3.138,6.62Z" style="fill-rule:nonzero;"/><path d="M1251.35,433.612l-3.686,-7.776l-3.763,1.783l3.686,7.776l3.763,-1.783Zm1.771,-0.84l3.763,-1.783l-3.686,-7.776l-3.763,1.783l3.686,7.776Zm-22.599,9.67c3.949,8.332 5.624,15.951 3.987,23.653l7.107,1.323c1.291,-5.75 0.932,-11.687 -0.655,-17.86l8.095,-3.837l5.13,10.824l-8.934,0.809l0.692,7.268l10.743,-1.07c1.505,7.106 -0.992,12.534 -6.516,17.834l5.558,4.664c7.579,-6.795 12.136,-17.594 5.19,-32.249l-8.413,-17.749l-13.925,6.6c-0.46,-1.127 -0.98,-2.225 -1.499,-3.319l-6.56,3.109Z" style="fill-rule:nonzero;"/><path d="M1284.99,448.795l25.29,-11.987l-3.139,-6.621l-25.289,11.987l3.138,6.621Z" style="fill-rule:nonzero;"/></g></svg>