<?xml version="1.0" encoding="UTF-8" standalone="no"?><!DOCTYPE svg PUBLIC "-//W3C//DTD SVG 1.1//EN" "http://www.w3.org/Graphics/SVG/1.1/DTD/svg11.dtd"><svg width="100%" height="100%" viewBox="0 0 1563 834" version="1.1" xmlns="http://www.w3.org/2000/svg" xmlns:xlink="http://www.w3.org/1999/xlink" xml:space="preserve" xmlns:serif="http://www.serif.com/" style="fill-rule:evenodd;clip-rule:evenodd;stroke-linecap:round;stroke-linejoin:round;stroke-miterlimit:1.5;"><g><g><path d="M729.317,461.452l-79.323,38.257l0,95.81l79.323,-38.257l0,-95.81Z" style="fill:#b6b6b6;stroke:#676261;stroke-width:4.17px;"/><path d="M649.994,499.709l-90.973,-41.104l-0,95.811l90.973,41.103l0,-95.81Z" style="fill:#e3e3e3;stroke:#676261;stroke-width:4.17px;"/><path d="M729.949,461.452l-90.973,-41.104l-79.955,38.613l90.973,41.103l79.955,-38.612Z" style="fill:#fff;stroke:#676261;stroke-width:4.17px;"/><g><path d="M608.697,512.239c-0,-2.201 1.438,-3.28 3.21,-2.408l6.421,3.159c1.772,0.872 3.21,3.366 3.21,5.567l0,30.549c0,2.201 -1.438,3.28 -3.21,2.408l-6.421,-3.159c-1.772,-0.872 -3.21,-3.366 -3.21,-5.567l-0,-30.549Z" style="fill:#eb793f;"/><path d="M580.659,502.517c0,-2.201 1.439,-3.28 3.211,-2.408l6.42,3.16c1.772,0.871 3.211,3.366 3.211,5.567l-0,30.549c-0,2.201 -1.439,3.28 -3.211,2.408l-6.42,-3.159c-1.772,-0.872 -3.211,-3.367 -3.211,-5.567l0,-30.55Z" style="fill:#eb793f;"/></g></g></g><g><g><path d="M970.701,407.078l-69.63,33.582l0,154.859l69.63,-33.582l0,-154.859Z" style="fill:#3d3e3f;stroke:#676261;stroke-width:4.17px;"/><path d="M901.071,440.66l-79.857,-36.081l-0,154.86l79.857,36.08l0,-154.859Z" style="fill:#656667;stroke:#676261;stroke-width:4.17px;"/><path d="M971.256,406.765l-79.857,-36.08l-70.185,33.894l79.857,36.081l70.185,-33.895Z" style="fill:#7d7f82;stroke:#676261;stroke-width:4.17px;"/><g><path d="M867.812,494.109c-0,-1.924 1.263,-2.871 2.818,-2.114l5.636,2.742c1.556,0.757 2.818,2.933 2.818,4.857l0,30.209c0,1.923 -1.262,2.87 -2.818,2.114l-5.636,-2.743c-1.555,-0.757 -2.818,-2.933 -2.818,-4.856l-0,-30.209Z" style="fill:#eb793f;"/><path d="M843.201,486.065c-0,-1.923 1.262,-2.871 2.818,-2.114l5.636,2.743c1.555,0.756 2.818,2.933 2.818,4.856l-0,30.209c-0,1.923 -1.263,2.871 -2.818,2.114l-5.636,-2.743c-1.556,-0.757 -2.818,-2.933 -2.818,-4.856l-0,-30.209Z" style="fill:#eb793f;"/></g></g></g></svg>