<?xml version="1.0" encoding="UTF-8" standalone="no"?><!DOCTYPE svg PUBLIC "-//W3C//DTD SVG 1.1//EN" "http://www.w3.org/Graphics/SVG/1.1/DTD/svg11.dtd"><svg width="100%" height="100%" viewBox="0 0 750 400" version="1.1" xmlns="http://www.w3.org/2000/svg" xmlns:xlink="http://www.w3.org/1999/xlink" xml:space="preserve" xmlns:serif="http://www.serif.com/" style="fill-rule:evenodd;clip-rule:evenodd;stroke-linecap:round;stroke-linejoin:round;stroke-miterlimit:1.5;"><g><g><path d="M288.573,221.497l-38.075,18.363l-0,45.989l38.075,-18.363l-0,-45.989Z" style="fill:#b6b6b6;stroke:#676261;stroke-width:2px;"/><path d="M250.498,239.86l-43.667,-19.729l-0,45.989l43.667,19.729l-0,-45.989Z" style="fill:#e3e3e3;stroke:#676261;stroke-width:2px;"/><path d="M288.876,221.497l-43.667,-19.73l-38.378,18.534l43.667,19.73l38.378,-18.534Z" style="fill:#fff;stroke:#676261;stroke-width:2px;"/><g><path d="M230.675,245.875c-0,-1.057 0.69,-1.575 1.541,-1.156l3.082,1.516c0.85,0.419 1.541,1.616 1.541,2.672l-0,14.664c-0,1.057 -0.691,1.574 -1.541,1.156l-3.082,-1.516c-0.851,-0.419 -1.541,-1.616 -1.541,-2.673l-0,-14.663Z" style="fill:#eb793f;"/><path d="M217.217,241.208c0,-1.056 0.691,-1.574 1.541,-1.156l3.082,1.517c0.851,0.418 1.541,1.616 1.541,2.672l0,14.664c0,1.056 -0.69,1.574 -1.541,1.156l-3.082,-1.517c-0.85,-0.418 -1.541,-1.616 -1.541,-2.672l0,-14.664Z" style="fill:#eb793f;"/></g></g></g><g><g><path d="M508.122,195.397l-33.422,16.12l-0,74.332l33.422,-16.119l0,-74.333Z" style="fill:#3d3e3f;stroke:#676261;stroke-width:2px;"/><path d="M474.7,211.517l-38.332,-17.319l0,74.333l38.332,17.318l-0,-74.332Z" style="fill:#656667;stroke:#676261;stroke-width:2px;"/><path d="M508.389,195.247l-38.332,-17.318l-33.689,16.269l38.332,17.319l33.689,-16.27Z" style="fill:#7d7f82;stroke:#676261;stroke-width:2px;"/><g><path d="M458.735,253.017c0,-0.493 0.317,-0.73 0.707,-0.531l3.997,2.042c0.39,0.199 0.707,0.761 0.707,1.253l-0,1.783c-0,0.492 -0.317,0.73 -0.707,0.531l-3.997,-2.042c-0.39,-0.199 -0.707,-0.761 -0.707,-1.253l0,-1.783Z" style="fill:#eb793f;"/><path d="M446.922,247.359c-0,-0.492 0.317,-0.73 0.707,-0.531l3.996,2.042c0.391,0.199 0.708,0.761 0.708,1.253l-0,1.783c-0,0.492 -0.317,0.73 -0.708,0.531l-3.996,-2.042c-0.39,-0.199 -0.707,-0.761 -0.707,-1.253l-0,-1.783Z" style="fill:#eb793f;"/></g></g><path d="M501.983,159.623c-9.117,9.823 -12.227,20.213 -5.518,31.529l-46.234,-7.219c15.072,-17.047 30.678,-30.06 51.752,-24.31Z" style="fill:#5c79ff;"/><ellipse cx="501.983" cy="160.542" rx="4.754" ry="4.792" style="fill:#fff;stroke:#676261;stroke-width:2px;"/><path d="M495.862,198.653c1.65,-0.713 1.858,-12.499 -1.221,-11.258c-13.234,0.52 -26.755,1.299 -41.743,-6.882c-3.424,-1.87 -6.924,9.333 -6.63,10.535c0.347,8.465 45.634,13.466 49.594,7.605Z" style="fill:#fff;stroke:#676261;stroke-width:2px;"/></g><g><g><path d="M397.46,191.124l-35.001,16.881l-0,77.844l35.001,-16.881l0,-77.844Z" style="fill:#3d8a3f;stroke:#678d62;stroke-width:2px;"/><path d="M362.459,208.005l-40.143,-18.137l0,77.844l40.143,18.137l-0,-77.844Z" style="fill:#65ac67;stroke:#678d62;stroke-width:2px;"/><path d="M397.739,190.967l-40.142,-18.137l-35.281,17.038l40.143,18.137l35.28,-17.038Z" style="fill:#7db57f;stroke:#678b62;stroke-width:2px;"/><g><path d="M345.74,231.869c0,-0.971 0.635,-1.447 1.417,-1.062l2.833,1.394c0.782,0.385 1.416,1.485 1.416,2.456l0,13.48c0,0.972 -0.634,1.448 -1.416,1.063l-2.833,-1.394c-0.782,-0.385 -1.417,-1.486 -1.417,-2.457l0,-13.48Z" style="fill:#ffdd3f;"/><path d="M333.369,227.58c-0,-0.971 0.634,-1.448 1.416,-1.063l2.833,1.394c0.782,0.385 1.417,1.486 1.417,2.457l-0,13.48c-0,0.971 -0.635,1.447 -1.417,1.062l-2.833,-1.394c-0.782,-0.384 -1.416,-1.485 -1.416,-2.456l-0,-13.48Z" style="fill:#ffdd3f;"/></g></g><g><path d="M361.393,153.906l-0,27.601" style="fill:none;stroke:#919c2f;stroke-width:2px;"/><path d="M363.778,153.817c0,-0 -15.766,-20.468 -31.568,6.932c13.577,-6.966 17.222,9.362 31.568,-6.932Z" style="fill:#21b747;"/><path d="M358.065,154.177c0,-0 12.786,-16.459 29.648,4.606c-13.088,-5.104 -15.064,7.791 -29.648,-4.606Z" style="fill:#21b747;"/><path d="M375.988,168.118c-9.445,5.412 -19.177,5.375 -29.19,-0l2.874,24.329c9.73,3.193 13.108,3.314 22.838,0.071l3.478,-24.4Z" style="fill:#aa623f;"/><path d="M377.026,167.013c-11.67,1.664 -18.624,1.717 -30.996,0.065l0.096,4.441c12.022,0.981 18.651,1.18 30.673,0.183l0.227,-4.689Z" style="fill:#774a29;"/></g></g></svg>