<?xml version="1.0" encoding="UTF-8" standalone="no"?><!DOCTYPE svg PUBLIC "-//W3C//DTD SVG 1.1//EN" "http://www.w3.org/Graphics/SVG/1.1/DTD/svg11.dtd"><svg width="100%" height="100%" viewBox="0 0 1563 834" version="1.1" xmlns="http://www.w3.org/2000/svg" xmlns:xlink="http://www.w3.org/1999/xlink" xml:space="preserve" xmlns:serif="http://www.serif.com/" style="fill-rule:evenodd;clip-rule:evenodd;stroke-linecap:round;stroke-linejoin:round;stroke-miterlimit:1.5;"><g><g><path d="M601.193,461.452l-79.323,38.257l0,95.81l79.323,-38.257l0,-95.81Z" style="fill:#b6b6b6;stroke:#676261;stroke-width:4.17px;"/><path d="M521.87,499.709l-90.973,-41.104l0,95.811l90.973,41.103l0,-95.81Z" style="fill:#e3e3e3;stroke:#676261;stroke-width:4.17px;"/><path d="M601.826,461.452l-90.974,-41.104l-79.955,38.613l90.973,41.103l79.956,-38.612Z" style="fill:#fff;stroke:#676261;stroke-width:4.17px;"/><g><path d="M480.573,512.239c-0,-2.201 1.438,-3.28 3.21,-2.408l6.421,3.159c1.772,0.872 3.21,3.366 3.21,5.567l0,30.549c0,2.201 -1.438,3.28 -3.21,2.408l-6.421,-3.159c-1.772,-0.872 -3.21,-3.366 -3.21,-5.567l-0,-30.549Z" style="fill:#eb793f;"/><path d="M452.536,502.517c-0,-2.201 1.438,-3.28 3.21,-2.408l6.421,3.16c1.772,0.871 3.21,3.366 3.21,5.567l0,30.549c0,2.201 -1.438,3.28 -3.21,2.408l-6.421,-3.159c-1.772,-0.872 -3.21,-3.367 -3.21,-5.567l-0,-30.55Z" style="fill:#eb793f;"/></g></g></g><g><g><path d="M1058.59,407.078l-69.63,33.582l-0,154.859l69.63,-33.582l-0,-154.859Z" style="fill:#6f9fa3;stroke:#82bcbf;stroke-width:4.17px;"/><path d="M988.958,440.66l-79.858,-36.081l0,154.86l79.858,36.08l-0,-154.859Z" style="fill:#9ad9dd;stroke:#82bcbf;stroke-width:4.17px;"/><path d="M1059.14,406.765l-79.857,-36.08l-70.186,33.894l79.858,36.081l70.185,-33.895Z" style="fill:#bcfcff;stroke:#82bcbf;stroke-width:4.17px;"/><g><path d="M956.014,496.297c-0,-2.023 1.322,-3.015 2.951,-2.214l5.902,2.905c1.629,0.801 2.951,3.094 2.951,5.117l0,28.084c0,2.023 -1.322,3.015 -2.951,2.213l-5.902,-2.904c-1.629,-0.801 -2.951,-3.094 -2.951,-5.118l-0,-28.083Z" style="fill:#e1e658;"/><path d="M930.239,487.36c0,-2.023 1.323,-3.015 2.952,-2.213l5.902,2.904c1.629,0.801 2.951,3.095 2.951,5.118l0,28.083c0,2.023 -1.322,3.015 -2.951,2.214l-5.902,-2.905c-1.629,-0.801 -2.952,-3.094 -2.952,-5.117l0,-28.084Z" style="fill:#e1e658;"/></g></g><g><g><path d="M937.057,408.686c-2.302,-2.366 -3.846,-13.305 -1.779,-12.374l6.92,-17.227c1.816,-5.728 9.513,-9.387 17.179,-8.165c18.643,7.629 40.272,2.974 60.93,1.75c4.885,0.778 4.217,-2.738 11.627,5.749c3.104,3.556 2.736,6.496 0.402,13.759l-8.115,24.058c-1.816,5.727 -9.513,9.386 -17.179,8.165c-17.08,-6.967 -36.69,-10.184 -58.999,-9.401c-4.885,-0.778 -9.415,-3.067 -10.986,-6.314Z" style="fill:#88a753;stroke:#82bebf;stroke-width:4.17px;"/><path d="M940.497,376.924c0.294,-0.928 3.648,-9.612 3.648,-9.612c1.632,-5.15 9.116,-8.351 16.701,-7.142c18.576,7.149 38.063,10.125 58.382,9.302c7.585,1.209 12.418,6.371 10.786,11.522l-5.916,18.663c-0.294,0.928 -3.648,9.613 -3.648,9.613c-1.632,5.15 -9.116,8.35 -16.701,7.141c-17.017,-6.528 -36.424,-9.703 -58.381,-9.302c-7.586,-1.208 -12.419,-6.371 -10.786,-11.521l5.915,-18.664Z" style="fill:#f9ffb6;stroke:#82bebf;stroke-width:4.17px;"/></g><g><path d="M937.057,408.686c-2.302,-2.366 -3.846,-13.305 -1.779,-12.374l6.92,-17.227c1.816,-5.728 9.513,-9.387 17.179,-8.165c18.643,7.629 40.272,2.974 60.93,1.75c4.885,0.778 4.217,-2.738 11.627,5.749c3.104,3.556 2.736,6.496 0.402,13.759l-8.115,24.058c-1.816,5.727 -9.513,9.386 -17.179,8.165c-17.08,-6.967 -36.69,-10.184 -58.999,-9.401c-4.885,-0.778 -9.415,-3.067 -10.986,-6.314Z" style="fill:#88a753;"/><path d="M940.497,376.924c0.294,-0.928 3.648,-9.612 3.648,-9.612c1.632,-5.15 9.116,-8.351 16.701,-7.142c18.576,7.149 38.063,10.125 58.382,9.302c7.585,1.209 12.418,6.371 10.786,11.522l-5.916,18.663c-0.294,0.928 -3.648,9.613 -3.648,9.613c-1.632,5.15 -9.116,8.35 -16.701,7.141c-17.017,-6.528 -36.424,-9.703 -58.381,-9.302c-7.586,-1.208 -12.419,-6.371 -10.786,-11.521l5.915,-18.664Z" style="fill:#f9ffb6;"/></g></g></g><g><g><path d="M828.042,398.174l-72.92,35.169l0,162.176l72.92,-35.168l0,-162.177Z" style="fill:#b6b6b6;stroke:#dda78d;stroke-width:4.17px;"/><path d="M755.122,433.343l-83.63,-37.785l0,162.176l83.63,37.785l0,-162.176Z" style="fill:#e3e3e3;stroke:#dda78d;stroke-width:4.17px;"/><path d="M828.623,397.847l-83.63,-37.785l-73.501,35.496l83.63,37.785l73.501,-35.496Z" style="fill:#fff;stroke:#dda78d;stroke-width:4.17px;"/><g><path d="M720.292,483.061c-0,-2.023 1.322,-3.015 2.951,-2.214l5.903,2.905c1.628,0.801 2.951,3.094 2.951,5.118l-0,28.083c-0,2.023 -1.323,3.015 -2.951,2.214l-5.903,-2.905c-1.629,-0.801 -2.951,-3.094 -2.951,-5.118l-0,-28.083Z" style="fill:#c5522f;"/><path d="M694.518,474.124c-0,-2.023 1.322,-3.015 2.951,-2.213l5.902,2.904c1.629,0.801 2.952,3.095 2.952,5.118l-0,28.083c-0,2.023 -1.323,3.015 -2.952,2.214l-5.902,-2.904c-1.629,-0.802 -2.951,-3.095 -2.951,-5.118l-0,-28.084Z" style="fill:#c5522f;"/></g></g></g><g><path d="M718.049,315.428c4.082,-11.986 17.404,-20.78 33.19,-20.78c15.493,-0 28.612,8.471 32.953,20.114c2.17,-0.577 4.482,-0.889 6.88,-0.889c12.505,0 22.657,8.471 22.657,18.905c0,8.506 -6.746,15.707 -16.016,18.079l-9.299,34.165l-2.844,-0.017l-0,3.541l-72.036,0l0,-3.983l-2.906,-0.018l-8.765,-33.832c-8.991,-2.509 -15.477,-9.595 -15.477,-17.935c0,-10.434 10.153,-18.905 22.658,-18.905c3.198,0 6.243,0.555 9.005,1.555Z" style="fill:#fff;stroke:#dda78d;stroke-width:4.17px;"/><path d="M710.538,383.405c-0.085,7.918 17.293,14.533 38.782,14.763c21.489,0.23 39.005,-6.012 39.089,-13.93c-9.755,1.875 -23.868,3.332 -38.974,3.17c-15.106,-0.162 -29.185,-1.92 -38.897,-4.003Z" style="fill:#dda78d;stroke:#dda78d;stroke-width:4.17px;"/></g></svg>