<?xml version="1.0" encoding="UTF-8" standalone="no"?><!DOCTYPE svg PUBLIC "-//W3C//DTD SVG 1.1//EN" "http://www.w3.org/Graphics/SVG/1.1/DTD/svg11.dtd"><svg width="100%" height="100%" viewBox="0 0 2084 2084" version="1.1" xmlns="http://www.w3.org/2000/svg" xmlns:xlink="http://www.w3.org/1999/xlink" xml:space="preserve" xmlns:serif="http://www.serif.com/" style="fill-rule:evenodd;clip-rule:evenodd;stroke-linecap:round;stroke-linejoin:round;stroke-miterlimit:1.5;"><rect x="0" y="1472.92" width="2083.33" height="610.408" style="fill:#bee7ec;"/><g><g><g><path d="M999.724,1341.78l-271.742,131.06l0,328.225l271.742,-131.06l-0,-328.225Z" style="fill:#b6b6b6;stroke:#676261;stroke-width:12.5px;"/><path d="M727.982,1477.38l-310.18,-140.144l0,323.682l310.18,140.145l0,-323.683Z" style="fill:#e3e3e3;stroke:#676261;stroke-width:12.5px;"/><path d="M999.724,1341.78l-310.365,-140.228l-271.557,131.143l310.365,140.228l271.557,-131.143Z" style="fill:#fff;stroke:#676261;stroke-width:12.42px;"/><g><path d="M586.507,1515.77c-0,-7.54 4.928,-11.236 10.998,-8.249l21.996,10.822c6.07,2.987 10.998,11.533 10.998,19.072l-0,104.655c-0,7.54 -4.928,11.236 -10.998,8.249l-21.996,-10.823c-6.07,-2.986 -10.998,-11.532 -10.998,-19.072l-0,-104.654Z" style="fill:#eb793f;"/><path d="M490.458,1482.46c-0,-7.539 4.928,-11.235 10.998,-8.249l21.996,10.823c6.07,2.987 10.998,11.533 10.998,19.072l-0,104.655c-0,7.539 -4.928,11.236 -10.998,8.249l-21.996,-10.823c-6.07,-2.987 -10.998,-11.532 -10.998,-19.072l-0,-104.655Z" style="fill:#eb793f;"/></g></g></g><g><g><path d="M1665.53,1085.42l-270.986,130.695l0,593.281l270.986,-130.695l-0,-593.281Z" style="fill:#3d3e3f;stroke:#676261;stroke-width:12.5px;"/><path d="M1394.55,1211.49l-308.329,-139.309l0,597.915l308.329,139.308l0,-597.914Z" style="fill:#656667;stroke:#676261;stroke-width:12.5px;"/><path d="M1665.53,1085.42l-313.47,-141.631l-265.845,128.384l313.47,141.631l265.845,-128.384Z" style="fill:#7d7f82;stroke:#676261;stroke-width:12.5px;"/><g><path d="M1266.13,1417.85c-0,-7.427 4.875,-11.085 10.88,-8.163l21.762,10.589c6.005,2.922 10.88,11.324 10.88,18.751l0,116.636c0,7.427 -4.875,11.084 -10.88,8.162l-21.762,-10.589c-6.005,-2.922 -10.88,-11.324 -10.88,-18.751l-0,-116.635Z" style="fill:#eb793f;"/><path d="M1171.11,1386.8c-0,-7.427 4.875,-11.084 10.881,-8.162l21.761,10.588c6.005,2.923 10.881,11.325 10.881,18.752l-0,116.635c-0,7.427 -4.876,11.085 -10.881,8.163l-21.761,-10.589c-6.006,-2.922 -10.881,-11.324 -10.881,-18.751l-0,-116.636Z" style="fill:#eb793f;"/></g></g></g><g id="レイヤー_1-2"><path d="M707.077,604.705c0,54.748 -45.05,99.799 -99.798,99.799c-54.749,-0 -99.799,-45.051 -99.799,-99.799" style="fill:none;fill-rule:nonzero;stroke:#231815;stroke-width:10.42px;stroke-linecap:butt;stroke-linejoin:miter;stroke-miterlimit:10;"/><path d="M507.48,604.787l-0,-211.318" style="fill:none;fill-rule:nonzero;stroke:#231815;stroke-width:10.42px;stroke-linecap:butt;stroke-linejoin:miter;stroke-miterlimit:10;"/><path d="M707.077,604.787l0,-211.318" style="fill:none;fill-rule:nonzero;stroke:#231815;stroke-width:10.42px;stroke-linecap:butt;stroke-linejoin:miter;stroke-miterlimit:10;"/><path d="M749.778,704.586l-0,-311.035l86.245,0c0.423,-0.007 0.846,-0.01 1.269,-0.01c42.872,-0 78.15,35.278 78.15,78.15c-0,42.872 -35.278,78.15 -78.15,78.15c-0.423,0 -0.846,-0.003 -1.269,-0.01l78.15,154.838" style="fill:none;fill-rule:nonzero;stroke:#231815;stroke-width:10.42px;stroke-linecap:butt;stroke-linejoin:miter;stroke-miterlimit:10;"/><path d="M1056.18,744.732l0,-395.447" style="fill:none;fill-rule:nonzero;stroke:#231815;stroke-width:10.42px;stroke-linecap:butt;stroke-linejoin:miter;stroke-miterlimit:10;"/><path d="M1206.46,702.568l-0,-311.035l86.224,-0c42.83,-0 78.085,35.217 78.13,78.047c-0,43.153 -36.337,78.443 -56.501,78.727c67.832,-0.076 82.887,136.855 -0.557,154.837" style="fill:none;fill-rule:nonzero;stroke:#231815;stroke-width:10.42px;stroke-linecap:butt;stroke-linejoin:miter;stroke-miterlimit:10;"/><path d="M1575.85,403.263c-0,-6.52 -5.293,-11.813 -11.813,-11.813l-145.364,0c-6.519,0 -11.812,5.293 -11.812,11.813l-0,289.84c-0,6.52 5.293,11.813 11.812,11.813l145.364,-0c6.52,-0 11.813,-5.293 11.813,-11.813l-0,-289.84Z" style="fill:none;stroke:#231815;stroke-width:10.42px;stroke-linecap:butt;stroke-linejoin:miter;stroke-miterlimit:10;"/><path d="M1475.15,488.535c-0,-3.254 -2.642,-5.896 -5.896,-5.896l-10.64,0c-3.254,0 -5.896,2.642 -5.896,5.896l-0,29.838c-0,3.254 2.642,5.895 5.896,5.895l10.64,0c3.254,0 5.896,-2.641 5.896,-5.895l-0,-29.838Z" style="fill:none;stroke:#231815;stroke-width:10.42px;stroke-linecap:butt;stroke-linejoin:miter;stroke-miterlimit:10;"/><path d="M1534,488.535c-0,-3.254 -2.642,-5.896 -5.896,-5.896l-10.64,0c-3.254,0 -5.896,2.642 -5.896,5.896l0,29.838c0,3.254 2.642,5.895 5.896,5.895l10.64,0c3.254,0 5.896,-2.641 5.896,-5.895l-0,-29.838Z" style="fill:none;stroke:#231815;stroke-width:10.42px;stroke-linecap:butt;stroke-linejoin:miter;stroke-miterlimit:10;"/></g><text x="706.058px" y="868.227px" style="font-family:'WaonJoyo-R', 'Waon Joyo';font-size:75px;">運ぶ箱と 整え<tspan x="1173.31px " y="868.227px ">る</tspan>生活</text><text x="963.138px" y="321.705px" style="font-family:'WaonJoyo-R', 'Waon Joyo';font-size:58.333px;">ウリボ</text></g></svg>